<?xml version="1.0" encoding="UTF-8" standalone="no"?>
<svg
   xmlns:dc="http://purl.org/dc/elements/1.1/"
   xmlns:cc="http://creativecommons.org/ns#"
   xmlns:rdf="http://www.w3.org/1999/02/22-rdf-syntax-ns#"
   xmlns:svg="http://www.w3.org/2000/svg"
   xmlns="http://www.w3.org/2000/svg"
   xmlns:sodipodi="http://sodipodi.sourceforge.net/DTD/sodipodi-0.dtd"
   xmlns:inkscape="http://www.inkscape.org/namespaces/inkscape"
   width="21px"
   height="20px"
   viewBox="0 0 21 20"
   version="1.1"
   id="svg20"
   sodipodi:docname="logo-url.svg"
   inkscape:version="1.0.2 (e86c8708, 2021-01-15)">
  <metadata
     id="metadata24">
    <rdf:RDF>
      <cc:Work
         rdf:about="">
        <dc:format>image/svg+xml</dc:format>
        <dc:type
           rdf:resource="http://purl.org/dc/dcmitype/StillImage" />
      </cc:Work>
    </rdf:RDF>
  </metadata>
  <sodipodi:namedview
     pagecolor="#ffffff"
     bordercolor="#666666"
     borderopacity="1"
     objecttolerance="10"
     gridtolerance="10"
     guidetolerance="10"
     inkscape:pageopacity="0"
     inkscape:pageshadow="2"
     inkscape:window-width="1680"
     inkscape:window-height="920"
     id="namedview22"
     showgrid="false"
     inkscape:zoom="16.613904"
     inkscape:cx="6.8057165"
     inkscape:cy="8.7499027"
     inkscape:window-x="0"
     inkscape:window-y="25"
     inkscape:window-maximized="1"
     inkscape:current-layer="Page-1" />
  <!-- Generator: Sketch 3.8.1 (29687) - http://www.bohemiancoding.com/sketch -->
  <title
     id="title10">url [#1424]</title>
  <desc
     id="desc12">Created with Sketch.</desc>
  <defs
     id="defs14" />
  <g
     id="Page-1"
     stroke="none"
     stroke-width="1"
     fill="none"
     fill-rule="evenodd">
    <g
       id="Dribbble-Light-Preview"
       transform="translate(-299.00002,-600.00002)"
       fill="#000000">
      <g
         id="icons"
         transform="translate(56,160)">
        <path
           d="m 246.40011,448.94865 c -1.88023,-1.7901 -1.64547,-4.84165 0.70214,-6.31742 1.70764,-1.07366 4.00164,-0.75115 5.4488,0.62664 l 0.67105,0.63889 c 0.41914,0.39904 1.09769,0.39904 1.51576,0 0.41914,-0.39803 0.41914,-1.04406 0,-1.44311 l -0.56707,-0.53989 c -2.49018,-2.37082 -6.5808,-2.61168 -9.14494,-0.31332 -2.65311,2.37898 -2.70028,6.3562 -0.1415,8.79132 l 0.75788,0.72156 c 0.41807,0.39904 1.09769,0.39904 1.51576,0 0.41914,-0.39803 0.41914,-1.04406 0,-1.44311 z m 15.57673,0.39701 -0.5467,-0.5205 c -0.41914,-0.39905 -1.09769,-0.39905 -1.51576,0 -0.41914,0.39803 -0.41914,1.04406 0,1.44311 l 0.67105,0.63889 c 1.44715,1.37779 1.78482,3.56184 0.65819,5.18763 -1.55007,2.23509 -4.75631,2.45757 -6.63547,0.66849 l -0.75788,-0.72156 c -0.41914,-0.39905 -1.09769,-0.39905 -1.51576,0 -0.41914,0.39803 -0.41914,1.04406 0,1.44311 l 0.75788,0.72156 c 2.55128,2.42899 6.71372,2.39123 9.21354,-0.11533 2.43658,-2.44226 2.17288,-6.36335 -0.32909,-8.7454 z m -4.33717,5.97451 -9.7238,-9.25773 c -0.41807,-0.39905 -0.41807,-1.04508 0,-1.44413 0.41914,-0.39803 1.09769,-0.39803 1.51576,0 l 9.72487,9.25773 c 0.41807,0.39905 0.41807,1.04508 0,1.44413 -0.41914,0.39803 -1.09769,0.39803 -1.51683,0 z"
           id="url-[#1424]" />
      </g>
    </g>
  </g>
</svg>
