<?xml version="1.0" encoding="UTF-8" standalone="no"?>
<svg
   xmlns:dc="http://purl.org/dc/elements/1.1/"
   xmlns:cc="http://creativecommons.org/ns#"
   xmlns:rdf="http://www.w3.org/1999/02/22-rdf-syntax-ns#"
   xmlns:svg="http://www.w3.org/2000/svg"
   xmlns="http://www.w3.org/2000/svg"
   xmlns:sodipodi="http://sodipodi.sourceforge.net/DTD/sodipodi-0.dtd"
   xmlns:inkscape="http://www.inkscape.org/namespaces/inkscape"
   width="650"
   height="500"
   version="1.1"
   viewBox="0 0 650.00001 500.00001"
   id="svg64"
   sodipodi:docname="gui-2311261.svg"
   inkscape:version="1.0.2 (e86c8708, 2021-01-15)">
  <metadata
     id="metadata68">
    <rdf:RDF>
      <cc:Work
         rdf:about="">
        <dc:format>image/svg+xml</dc:format>
        <dc:type
           rdf:resource="http://purl.org/dc/dcmitype/StillImage" />
      </cc:Work>
    </rdf:RDF>
  </metadata>
  <sodipodi:namedview
     pagecolor="#ffffff"
     bordercolor="#666666"
     borderopacity="1"
     objecttolerance="10"
     gridtolerance="10"
     guidetolerance="10"
     inkscape:pageopacity="0"
     inkscape:pageshadow="2"
     inkscape:window-width="1127"
     inkscape:window-height="741"
     id="namedview66"
     showgrid="false"
     inkscape:zoom="0.67930194"
     inkscape:cx="605.35617"
     inkscape:cy="339.63782"
     inkscape:window-x="0"
     inkscape:window-y="25"
     inkscape:window-maximized="0"
     inkscape:current-layer="svg64" />
  <defs
     id="defs22">
    <marker
       id="h"
       overflow="visible"
       orient="auto">
      <path
         transform="scale(.2) translate(7.4 1)"
         d="m-2.5-1c0 2.76-2.24 5-5 5s-5-2.24-5-5 2.24-5 5-5 5 2.24 5 5z"
         fill="#62d5e9"
         fill-rule="evenodd"
         stroke="#62d5e9"
         stroke-width="1pt"
         id="path10" />
    </marker>
    <marker
       id="g"
       overflow="visible"
       orient="auto">
      <path
         transform="scale(.2) translate(7.4 1)"
         d="m-2.5-1c0 2.76-2.24 5-5 5s-5-2.24-5-5 2.24-5 5-5 5 2.24 5 5z"
         fill="#62d5e9"
         fill-rule="evenodd"
         stroke="#62d5e9"
         stroke-width="1pt"
         id="path13" />
    </marker>
    <marker
       id="e"
       overflow="visible"
       orient="auto">
      <path
         transform="scale(.2) translate(7.4 1)"
         d="m-2.5-1c0 2.76-2.24 5-5 5s-5-2.24-5-5 2.24-5 5-5 5 2.24 5 5z"
         fill="#62d5e9"
         fill-rule="evenodd"
         stroke="#62d5e9"
         stroke-width="1pt"
         id="path16" />
    </marker>
    <filter
       id="f"
       x="-.068536"
       y="-.10456"
       width="1.1371"
       height="1.2091"
       color-interpolation-filters="sRGB">
      <feGaussianBlur
         stdDeviation="13.463792"
         id="feGaussianBlur19" />
    </filter>
    <clipPath
       clipPathUnits="userSpaceOnUse"
       id="clipPath74">
      <rect
         style="fill:#ffffff"
         id="rect76"
         width="471.48001"
         height="309.03"
         x="89.262001"
         y="95.484001" />
    </clipPath>
    <clipPath
       clipPathUnits="userSpaceOnUse"
       id="clipPath78">
      <rect
         style="fill:#ffffff"
         id="rect80"
         width="471.48001"
         height="309.03"
         x="85.390701"
         y="95.484001" />
    </clipPath>
    <clipPath
       clipPathUnits="userSpaceOnUse"
       id="clipPath82">
      <rect
         style="fill:#ffffff;stroke-width:1.26825"
         id="rect84"
         width="597.95306"
         height="391.92633"
         x="186.59717"
         y="102.9639" />
    </clipPath>
    <clipPath
       clipPathUnits="userSpaceOnUse"
       id="clipPath86">
      <rect
         style="fill:#ffffff"
         id="rect88"
         width="471.48001"
         height="309.03"
         x="89.262001"
         y="95.484001" />
    </clipPath>
    <clipPath
       clipPathUnits="userSpaceOnUse"
       id="clipPath90">
      <rect
         style="fill:#ffffff"
         id="rect92"
         width="471.48001"
         height="309.03"
         x="89.262001"
         y="95.484001" />
    </clipPath>
    <clipPath
       clipPathUnits="userSpaceOnUse"
       id="clipPath94">
      <rect
         style="fill:#ffffff"
         id="rect96"
         width="471.48001"
         height="309.03"
         x="89.262001"
         y="95.484001" />
    </clipPath>
    <clipPath
       clipPathUnits="userSpaceOnUse"
       id="clipPath98">
      <rect
         style="fill:#ffffff"
         id="rect100"
         width="471.48001"
         height="309.03"
         x="89.262001"
         y="95.484001" />
    </clipPath>
    <clipPath
       clipPathUnits="userSpaceOnUse"
       id="clipPath102">
      <rect
         style="fill:#ffffff"
         id="rect104"
         width="471.48001"
         height="309.03"
         x="89.262001"
         y="95.484001" />
    </clipPath>
    <clipPath
       clipPathUnits="userSpaceOnUse"
       id="clipPath98-3">
      <rect
         style="fill:#ffffff"
         id="rect100-8"
         width="471.48001"
         height="309.03"
         x="89.262001"
         y="95.484001" />
    </clipPath>
  </defs>
  <g
     id="g149"
     transform="matrix(1.3494609,0,0,1.3494609,-112.04772,-86.363502)">
    <rect
       x="89.262001"
       y="110.62"
       width="471.48001"
       height="309.03"
       ry="0"
       fill-opacity="0.090426"
       filter="url(#f)"
       id="rect28"
       clip-path="url(#clipPath102)" />
    <rect
       x="2.408134"
       y="-0.2024626"
       width="558.33386"
       height="404.71646"
       ry="0"
       fill="#ffffff"
       id="rect30"
       style="stroke-width:1.24535"
       clip-path="url(#clipPath98)" />
    <rect
       x="89.262001"
       y="95.484001"
       width="471.48001"
       height="16.292999"
       fill="#ededed"
       id="rect32"
       clip-path="url(#clipPath94)" />
    <circle
       cx="97.407997"
       cy="103.63"
       r="2.812"
       fill="#62d5e9"
       id="circle34"
       clip-path="url(#clipPath90)" />
    <circle
       cx="114.28"
       cy="103.63"
       r="2.812"
       fill="#ff8d72"
       id="circle36"
       clip-path="url(#clipPath86)" />
    <g
       transform="matrix(0.78849,0,0,0.78849,-57.868,14.298)"
       id="g50"
       clip-path="url(#clipPath82)">
      <path
         d="m 438.93,275.9 a 92.148,92.148 0 0 1 -84.776,91.853 92.148,92.148 0 0 1 -98.341,-77.156 L 346.782,275.9 Z"
         fill="#58f9a2"
         id="path40" />
      <path
         d="m 264.69,225.71 a 92.148,92.148 0 0 1 66.136,-45.138 l 13.719,91.121 z"
         fill="#ff8d72"
         id="path42" />
      <path
         d="m 337.94,181.3 a 92.148,92.148 0 0 1 70.338,21.558 92.148,92.148 0 0 1 32.142,66.175 l -92.069,3.8257 z"
         fill="#62d5e9"
         id="path44" />
      <path
         d="m 244.21,287.21 a 92.148,92.148 0 0 1 -0.55826,-15.453 l 92.043,4.4113 z"
         fill-opacity=".090196"
         id="path46" />
      <path
         d="m 247.94,265.78 a 92.148,92.148 0 0 1 10.38,-35.315 l 81.437,43.12 z"
         fill="#f0ef94"
         id="path48" />
    </g>
    <g
       transform="translate(3.8713)"
       id="g60"
       clip-path="url(#clipPath78)">
      <rect
         x="384.03"
         y="273.48999"
         width="24.768"
         height="31.011"
         fill="#ff8d72"
         id="rect52" />
      <rect
         x="418.42999"
         y="257.38"
         width="24.768"
         height="47.122002"
         fill="#62d5e9"
         id="rect54" />
      <rect
         x="452.82999"
         y="268.92999"
         width="24.768"
         height="35.570999"
         fill="#f0ef94"
         id="rect56" />
      <rect
         x="487.23001"
         y="208.28999"
         width="24.768"
         height="96.212997"
         fill="#58f9a2"
         id="rect58" />
    </g>
    <path
       d="m 134.13,362.6 54.533,-15.812 54.533,13.086 54.533,9.2694 54.533,-25.082 54.533,11.45 54.533,0.54525 54.533,-14.177"
       fill="none"
       marker-end="url(#g)"
       marker-mid="url(#e)"
       marker-start="url(#h)"
       stroke="#62d5e9"
       stroke-width="3"
       id="path62"
       clip-path="url(#clipPath74)" />
  </g>
</svg>
